{"title":"Weeds.S06E01.PREAIR.XviD-PT","uid":5730939,"size":372203284,"categoryP":"video","categoryS":"tv_shows","magnet":"?xt=urn:btih:88e21d5fcde3aa92375e40b72c451150a8510643&amp;dn=Weeds.S06E01.PREAIR.XviD-PT&amp;tr=udp%3A%2F%2Ftracker.openbittorrent.com%3A80&amp;tr=udp%3A%2F%2Fopen.demonii.com%3A1337&amp;tr=udp%3A%2F%2Ftracker.coppersurfer.tk%3A6969&amp;tr=udp%3A%2F%2Fexodus.desync.com%3A6969","seeders":1,"leechers":0,"uploader":"PhilLesh12","files":2,"time":1280642969,"description":"info:  &lt;a href=&quot;\nhttp://www.sho.com/site/weeds/episodes.do?seriesid=216&amp;seasonid=6&amp;episodeid=135547&quot; rel=&quot;nofollow&quot; target=&quot;_NEW&quot;&gt;\nhttp://www.sho.com/site/weeds/episodes.do?seriesid=216&amp;seasonid=6&amp;episodeid=135547&lt;/a&gt;\n\nGeneral\nComplete name                    : weeds 601.avi\nFormat                           : AVI\nFormat/Info                      : Audio Video Interleave\nFile size                        : 355 MiB\nDuration                         : 24mn 35s\nOverall bit rate                 : 2 018 Kbps\n\nVideo\nFormat                           : MPEG-4 Visual\nFormat settings, BVOP            : Yes\nFormat settings, QPel            : No\nFormat settings, GMC             : No warppoints\nFormat settings, Matrix          : Default (H.263)\nCodec ID                         : XVID\nCodec ID/Hint                    : XviD\nDuration                         : 24mn 35s\nBit rate                         : 1 876 Kbps\nWidth                            : 720 pixels\nHeight                           : 400 pixels\nDisplay aspect ratio             : 16/9\nFrame rate                       : 29.970 fps\nResolution                       : 24 bits\nScan type                        : Progressive\nBits/(Pixel*Frame)               : 0.217\nStream size                      : 330 MiB (93%)\n\nAudio\nFormat                           : MPEG Audio\nFormat version                   : Version 1\nFormat profile                   : Layer 3\nCodec ID                         : 55\nCodec ID/Hint                    : MP3\nDuration                         : 24mn 34s\nBit rate mode                    : Constant\nBit rate                         : 128 Kbps\nChannel(s)                       : 2 channels\nSampling rate                    : 48.0 KHz\nResolution                       : 16 bits\nStream size                      : 22.5 MiB (6%)\nAlignment                        : Split accross interleaves\nInterleave, duration             : 24 ms (0.72 video frame)","torrent":{"xt":"urn:btih:88e21d5fcde3aa92375e40b72c451150a8510643","amp;dn":"Weeds.S06E01.PREAIR.XviD-PT","amp;tr":["udp%3A%2F%2Ftracker.openbittorrent.com%3A80","udp%3A%2F%2Fopen.demonii.com%3A1337","udp%3A%2F%2Ftracker.coppersurfer.tk%3A6969","udp%3A%2F%2Fexodus.desync.com%3A6969"],"infoHash":"88e21d5fcde3aa92375e40b72c451150a8510643","infoHashBuffer":{"type":"Buffer","data":[136,226,29,95,205,227,170,146,55,94,64,183,44,69,17,80,168,81,6,67]},"announce":[],"urlList":[]}}